<?xml version="1.0" standalone="no"?>
<!DOCTYPE svg PUBLIC "-//W3C//DTD SVG 20010904//EN"
 "http://www.w3.org/TR/2001/REC-SVG-20010904/DTD/svg10.dtd">
<svg version="1.0" xmlns="http://www.w3.org/2000/svg"
 width="4500.000000pt" height="4500.000000pt" viewBox="0 0 4500.000000 4500.000000"
 preserveAspectRatio="xMidYMid meet">

<g transform="translate(0.000000,4500.000000) scale(0.100000,-0.100000)"
fill="#000000" stroke="none">
<path d="M19430 42705 c-498 -73 -864 -270 -1070 -576 -71 -107 -107 -198
-158 -405 -53 -211 -66 -348 -59 -599 6 -212 21 -359 63 -595 45 -259 139
-625 157 -613 14 9 2 197 -25 378 -17 112 -22 197 -23 335 0 167 2 192 23 260
95 303 350 455 877 522 134 16 638 16 770 -1 213 -28 353 -77 433 -155 85 -81
107 -153 127 -427 20 -285 47 -402 127 -568 39 -78 115 -193 184 -274 l30 -37
23 98 c76 317 188 461 282 361 59 -63 89 -213 89 -444 0 -182 -10 -285 -45
-504 -14 -85 -24 -156 -22 -158 15 -15 161 259 220 412 241 626 316 1329 192
1795 -69 257 -197 459 -378 596 -83 63 -242 138 -349 164 -79 20 -89 25 -114
61 -82 119 -263 236 -474 306 -171 56 -297 74 -550 78 -166 3 -263 0 -330 -10z"/>
<path d="M24860 42709 c-314 -31 -616 -196 -834 -459 -398 -477 -623 -1248
-686 -2344 -13 -231 -13 -620 1 -783 17 -216 92 -689 111 -709 3 -2 79 -23
169 -45 159 -40 166 -41 239 -30 103 15 170 15 170 -2 0 -55 -117 -317 -198
-444 -55 -85 -58 -95 -67 -253 -3 -58 -7 -136 -10 -175 -2 -38 -7 -113 -10
-165 -10 -178 -16 -265 -20 -325 -3 -33 -32 -499 -65 -1035 -68 -1099 -84
-1332 -94 -1349 -4 -6 -15 -10 -24 -7 -10 3 -55 8 -102 11 -47 3 -114 7 -150
10 -145 10 -336 18 -353 16 -18 -2 -18 4 -13 106 4 59 16 290 27 511 l21 404
-133 496 c-73 274 -133 498 -134 499 0 1 -19 -3 -41 -9 -35 -10 -47 -8 -87 11
-70 34 -80 64 -73 225 l5 131 -25 -94 c-14 -52 -34 -107 -45 -123 -62 -86
-209 -77 -253 16 -24 52 -20 87 34 297 27 107 50 199 49 204 0 6 -36 -60 -79
-146 -93 -185 -113 -204 -216 -204 -51 0 -66 4 -97 28 -49 37 -70 80 -70 142
1 43 17 84 125 305 121 248 126 257 189 313 57 52 61 57 34 51 -16 -4 -37 -10
-45 -15 -9 -4 -67 -91 -128 -192 -62 -102 -128 -199 -147 -216 -41 -36 -107
-49 -160 -31 -78 26 -134 117 -119 195 3 19 52 110 109 202 57 92 102 169 102
169 -1 1 -200 -35 -442 -80 l-440 -82 -7 -47 c-12 -84 -83 -202 -183 -303 -77
-77 -105 -98 -192 -141 -137 -69 -256 -97 -395 -91 -94 3 -110 7 -180 40 -103
49 -180 127 -239 241 -29 58 -50 87 -61 87 -71 0 -254 -36 -332 -66 -76 -28
-281 -69 -1268 -253 -829 -154 -1188 -225 -1215 -239 -21 -11 -68 -25 -105
-30 -99 -15 -181 -44 -387 -135 l-184 -82 -126 -248 -126 -248 -415 6 -415 7
-185 -82 c-188 -83 -261 -120 -339 -173 -24 -16 -64 -35 -89 -41 l-46 -12 119
-69 c198 -113 215 -131 215 -228 0 -98 -70 -167 -168 -167 -52 0 -66 6 -255
115 -174 101 -204 115 -231 109 -60 -12 -59 -21 6 -34 34 -7 78 -19 95 -26 55
-22 477 -330 495 -360 81 -140 -57 -311 -205 -255 -20 8 -225 149 -296 205 -8
6 -12 6 -9 1 4 -6 76 -64 161 -130 160 -124 183 -149 188 -200 5 -67 -1 -87
-39 -125 -45 -45 -101 -59 -154 -37 -19 8 -104 68 -189 134 -85 66 -165 126
-179 133 -52 27 7 -24 129 -110 127 -90 154 -121 154 -179 0 -82 -58 -136
-140 -129 -43 3 -44 2 -38 -22 4 -14 56 -205 116 -425 313 -1134 538 -1959
535 -1962 -1 -1 -32 39 -67 90 -691 982 -1143 1617 -1150 1617 -5 0 -42 -16
-81 -36 l-72 -36 -71 74 c-38 40 -132 140 -208 220 l-139 147 11 51 c16 75 14
156 -5 174 -20 21 -63 20 -93 0 -22 -16 -23 -21 -17 -92 6 -67 5 -74 -8 -63
-9 7 -18 28 -22 47 -3 18 -12 38 -20 45 -12 9 -14 5 -14 -23 0 -19 -7 -43 -16
-54 -14 -18 -15 -14 -10 46 7 81 -8 110 -58 110 -61 0 -69 -15 -64 -120 4 -82
7 -95 27 -111 31 -25 38 -24 70 10 l26 28 223 -285 223 -285 -198 -102 c-575
-296 -958 -542 -1339 -863 l-132 -110 -252 364 c-138 200 -255 366 -259 369
-4 2 -19 -8 -34 -23 l-25 -27 224 -389 c123 -214 224 -395 224 -402 0 -7 -4
-16 -10 -19 -5 -3 -10 -9 -10 -13 0 -8 1 -9 374 -447 153 -180 279 -333 280
-341 1 -8 164 -211 363 -452 198 -240 485 -590 638 -777 153 -187 283 -346
290 -353 9 -10 37 17 137 135 212 251 374 428 618 677 443 450 875 830 1368
1200 111 84 142 111 137 124 -13 31 -156 574 -152 578 4 4 197 -528 197 -543
0 -6 -7 -13 -15 -17 -8 -3 -15 -10 -15 -16 0 -5 53 27 118 71 562 388 989 642
1552 923 418 208 710 336 1122 491 l216 81 -112 210 c-62 115 -217 407 -345
649 -128 242 -248 468 -267 502 l-33 62 590 498 c325 274 594 500 600 501 5 2
9 -8 9 -21 0 -14 25 -436 55 -939 30 -502 59 -994 65 -1092 5 -99 11 -180 13
-182 1 -1 56 13 122 32 874 253 1808 402 2785 445 298 13 1016 7 1255 -11 703
-52 1344 -149 1994 -302 141 -33 216 -46 220 -39 4 6 21 124 39 263 31 235
197 1436 311 2242 l49 348 -58 112 c-100 189 -164 383 -201 601 -20 120 -32
329 -22 396 l5 36 61 -13 c81 -17 141 -39 194 -70 l43 -25 54 84 c244 378 459
862 560 1257 56 221 116 616 147 970 16 173 16 644 0 780 -48 436 -147 748
-316 1000 -77 115 -214 252 -326 326 -173 115 -346 174 -570 194 -68 6 -162
19 -209 30 -47 11 -137 24 -200 30 -126 11 -119 11 -240 -1z m-523 -1156 c-3
-43 -2 -119 3 -169 36 -384 253 -657 699 -879 166 -83 308 -138 581 -225 124
-39 302 -96 395 -127 166 -53 326 -123 374 -163 l24 -21 -22 -82 c-28 -101
-100 -285 -153 -391 -198 -396 -503 -698 -832 -826 l-83 -32 -19 -220 c-11
-121 -17 -221 -14 -223 3 -2 72 -12 153 -21 81 -10 152 -21 157 -24 13 -8 -28
-147 -85 -291 -175 -436 -415 -693 -682 -731 -272 -39 -513 122 -632 424 -42
105 -71 228 -96 398 -10 70 -16 365 -8 377 7 10 39 9 152 -5 100 -13 144 -15
146 -8 2 6 11 97 20 201 8 105 18 206 20 225 5 34 2 37 -81 104 -231 186 -428
518 -518 873 -51 201 -69 358 -69 598 -1 238 14 377 59 555 30 118 128 321
215 445 56 79 277 315 295 315 4 0 4 -35 1 -77z m-6801 -5395 c-54 -51 -104
-96 -111 -100 -12 -7 -85 116 -74 126 4 5 245 62 274 65 5 0 -35 -41 -89 -91z"/>
<path d="M14066 41080 c-462 -53 -850 -290 -1109 -678 -303 -453 -339 -1044
-96 -1562 101 -213 227 -389 417 -581 123 -125 139 -146 191 -246 193 -370
477 -692 791 -896 169 -109 369 -194 550 -233 64 -14 126 -18 250 -18 145 1
177 4 262 27 294 78 528 265 691 552 133 236 196 510 197 852 0 329 -50 586
-180 928 -32 84 -40 120 -50 230 -26 295 -100 568 -216 799 -208 414 -530 663
-964 747 -58 11 -134 27 -170 36 -178 42 -413 60 -564 43z m1120 -907 c167
-276 292 -401 499 -499 87 -42 100 -51 130 -99 86 -134 201 -474 246 -730 20
-110 23 -165 24 -360 0 -260 -15 -366 -81 -565 -35 -106 -142 -323 -158 -322
-5 0 -35 58 -66 127 -67 151 -106 206 -180 258 -70 48 -145 70 -240 70 -87 -1
-106 -8 -333 -110 -142 -64 -179 -85 -222 -128 -62 -60 -99 -128 -115 -213
-21 -103 -8 -166 65 -333 36 -81 65 -151 65 -154 0 -11 -83 3 -187 30 -447
117 -864 472 -1157 986 l-66 116 0 109 c-1 60 -5 142 -9 183 l-9 74 48 61
c112 144 211 328 248 461 l19 70 8 -44 c10 -60 34 -128 81 -230 l38 -84 13 69
c32 176 145 312 437 523 93 67 170 120 172 118 12 -11 -102 -212 -147 -262
-60 -65 -49 -64 83 11 154 87 262 168 373 279 121 121 202 234 266 369 37 80
89 253 89 297 0 11 2 19 4 19 2 0 30 -44 62 -97z m250 -2298 c71 -21 116 -63
161 -152 59 -114 68 -145 49 -181 -66 -129 -390 -291 -590 -295 -105 -3 -107
-2 -161 124 -43 103 -47 117 -42 171 6 67 41 136 87 168 36 26 247 123 340
156 77 28 91 29 156 9z"/>
<path d="M9726 38809 c-435 -56 -836 -254 -1140 -564 -367 -373 -582 -907
-550 -1370 4 -66 7 -147 6 -180 -11 -497 -5 -559 64 -772 133 -411 445 -755
905 -997 97 -52 291 -136 311 -136 5 0 -16 35 -45 78 -102 146 -167 286 -212
453 -21 81 -22 90 -7 84 62 -27 190 -67 262 -82 121 -25 460 -25 615 1 241 40
526 125 778 232 152 65 351 163 344 170 -3 3 -88 43 -189 88 -298 135 -368
169 -368 178 0 11 135 10 226 -3 197 -27 405 -118 626 -273 75 -53 143 -96
151 -96 19 0 93 293 117 459 l16 116 26 -41 c63 -98 126 -241 234 -524 l28
-75 8 43 c30 176 68 697 68 950 0 947 -252 1596 -749 1927 -228 151 -617 283
-974 330 -129 16 -434 19 -551 4z"/>
<path d="M34260 38714 c-106 -19 -267 -72 -374 -123 -44 -21 -128 -50 -186
-63 -381 -91 -676 -320 -897 -696 -212 -360 -355 -895 -378 -1423 l-6 -134 54
110 c194 395 446 696 624 744 51 14 102 -3 127 -41 28 -43 38 -129 26 -220
-10 -76 -40 -210 -57 -255 -4 -10 22 18 57 62 179 226 405 418 594 505 147 68
261 77 348 28 24 -13 126 -94 228 -179 404 -337 692 -544 905 -652 99 -49 117
-65 140 -120 56 -135 -52 -466 -275 -837 -43 -73 -71 -126 -62 -118 145 123
379 338 455 418 332 349 539 725 638 1155 56 246 15 514 -120 783 -263 523
-751 916 -1296 1043 -122 28 -421 35 -545 13z"/>
<path d="M23412 38377 c-18 -22 -23 -61 -10 -79 9 -13 39 -22 96 -30 79 -11
84 -10 104 9 15 15 19 28 14 47 -5 21 -17 29 -75 46 -78 23 -114 25 -129 7z"/>
<path d="M23371 38187 c-16 -20 -23 -70 -12 -86 5 -8 45 -20 91 -27 89 -14
114 -9 125 26 11 36 -11 56 -89 78 -87 26 -100 27 -115 9z"/>
<path d="M23276 38008 c-20 -28 -20 -62 -2 -77 22 -19 161 -40 183 -28 25 14
32 27 27 50 -5 28 -10 31 -83 56 -82 27 -106 26 -125 -1z"/>
<path d="M23220 37820 c-6 -12 -9 -32 -6 -45 5 -20 15 -25 59 -30 29 -4 66 -5
82 -3 26 2 30 8 33 35 3 29 0 33 -35 43 -21 6 -57 13 -79 16 -36 6 -44 3 -54
-16z"/>
<path d="M22363 37488 c-12 -13 -33 -48 -48 -78 -32 -64 -25 -59 39 33 46 65
51 90 9 45z"/>
<path d="M26579 36486 c-90 -296 -103 -336 -108 -331 -2 3 -125 -394 -271
-882 -147 -489 -290 -962 -318 -1053 -28 -90 -50 -165 -49 -165 1 -1 61 -19
132 -40 739 -216 1578 -565 2271 -945 81 -45 150 -77 154 -73 4 4 60 85 125
178 102 146 943 1321 966 1350 4 6 -14 67 -43 139 l-51 128 -578 -578 c-319
-319 -579 -576 -579 -572 0 3 151 484 335 1068 l335 1062 -29 37 c-22 28 -73
58 -227 135 -670 333 -1131 484 -1896 619 l-138 24 -31 -101z"/>
<path d="M30484 35464 c12 -36 22 -60 23 -52 4 21 -22 111 -33 115 -6 2 -1
-26 10 -63z"/>
<path d="M30144 35400 c17 -59 67 -205 108 -314 28 -74 48 -145 48 -168 0 -80
-50 -128 -132 -128 -52 1 -82 16 -110 56 -25 36 -26 39 68 -196 74 -185 78
-199 78 -275 1 -98 -25 -160 -107 -251 -29 -32 -197 -284 -372 -559 -546 -857
-638 -998 -648 -990 -4 3 -4 1 0 -4 5 -5 67 -48 138 -97 338 -229 699 -502
1017 -769 67 -55 68 -56 77 -33 33 84 419 917 1018 2196 l428 914 50 4 c28 2
70 6 94 9 l43 7 -66 47 -66 48 -103 6 c-100 6 -103 7 -162 49 -243 172 -489
291 -631 305 l-52 6 0 -55 c1 -103 -52 -158 -154 -158 -46 0 -62 5 -87 25
l-30 26 10 -33 c14 -50 11 -85 -11 -127 -49 -98 -196 -111 -258 -24 -11 16
-46 119 -78 231 -45 155 -65 211 -86 235 -15 18 -26 25 -24 17z"/>
<path d="M30511 35374 c0 -11 3 -14 6 -6 3 7 2 16 -1 19 -3 4 -6 -2 -5 -13z"/>
<path d="M13975 35314 c17 -10 55 -28 85 -41 51 -22 53 -22 30 -3 -36 30 -70
47 -110 54 l-35 7 30 -17z"/>
<path d="M14120 35246 c0 -2 8 -10 18 -17 15 -13 16 -12 3 4 -13 16 -21 21
-21 13z"/>
<path d="M30016 34930 c3 -14 11 -32 16 -40 6 -10 7 -7 2 10 -3 14 -11 32 -16
40 -6 10 -7 7 -2 -10z"/>
<path d="M12538 34558 c-16 -12 -15 -15 7 -41 25 -28 25 -28 24 -5 0 13 -4 31
-7 41 -6 15 -10 15 -24 5z"/>
<path d="M13230 34535 c-18 -21 -10 -163 10 -176 24 -15 54 -6 67 22 18 37 20
149 2 160 -22 14 -65 11 -79 -6z"/>
<path d="M13031 34529 c-23 -9 -24 -11 -18 -105 4 -71 10 -101 23 -115 22 -24
49 -24 74 1 17 17 20 33 20 115 0 83 -2 96 -19 105 -24 12 -48 12 -80 -1z"/>
<path d="M31837 34203 c-82 -113 -146 -207 -144 -210 3 -3 347 -43 374 -43 0
0 -1 -9 -4 -20 -4 -14 5 -29 28 -51 51 -47 87 -63 116 -50 27 12 16 31 138
-242 27 -59 52 -104 57 -99 12 12 296 407 294 409 -1 1 -71 9 -156 17 -236 24
-240 25 -240 45 0 32 -88 101 -130 101 -22 0 -30 13 -74 113 -27 61 -63 140
-80 174 l-31 62 -148 -206z"/>
<path d="M33075 33915 c7 -41 18 -81 25 -90 11 -14 10 -20 -11 -39 -555 -529
-2056 -1958 -2246 -2139 l-261 -247 156 -149 c176 -167 413 -407 578 -584
l109 -118 95 118 c173 215 1473 1804 1532 1874 21 25 26 24 30 -3 3 -22 12
-24 331 -62 316 -37 329 -38 341 -20 13 18 23 17 284 -12 l270 -30 6 36 c32
194 -45 450 -173 579 -48 48 -69 61 -146 88 -86 30 -274 89 -361 112 l-42 11
-4 58 c-7 105 -78 211 -225 336 -86 73 -89 77 -123 166 -34 89 -37 93 -102
141 -37 27 -69 49 -71 49 -2 0 2 -34 8 -75z"/>
<path d="M36670 32989 c-552 -372 -887 -856 -956 -1383 -12 -93 -22 -130 -44
-170 -64 -115 -81 -268 -45 -395 26 -91 271 -499 340 -566 104 -102 227 -147
395 -144 77 1 115 -3 141 -14 55 -24 229 -66 342 -82 135 -19 415 -19 564 0
213 28 439 91 652 184 93 40 265 130 259 136 -2 1 -57 -7 -123 -18 -96 -16
-170 -20 -370 -21 -228 -1 -258 1 -337 21 -151 39 -291 118 -326 185 -13 23
-11 29 22 75 106 148 134 341 72 495 -13 33 -80 152 -147 266 -90 150 -139
223 -181 264 -102 101 -261 158 -405 145 l-64 -6 -23 52 c-74 167 -52 357 70
604 51 104 166 286 250 396 20 26 32 47 27 47 -4 -1 -55 -32 -113 -71z m28
-1268 c21 -11 53 -32 71 -46 33 -28 270 -416 290 -474 16 -48 14 -139 -5 -194
-21 -61 -81 -127 -168 -186 -101 -68 -129 -81 -179 -81 -147 0 -396 318 -483
618 -28 99 -30 141 -8 203 16 42 25 50 118 106 95 57 147 79 206 86 42 4 116
-10 158 -32z"/>
<path d="M28465 32950 c3 -5 8 -10 11 -10 2 0 4 5 4 10 0 6 -5 10 -11 10 -5 0
-7 -4 -4 -10z"/>
<path d="M28490 32934 c0 -2 15 -11 33 -20 27 -14 30 -15 19 -2 -11 14 -52 31
-52 22z"/>
<path d="M28565 32893 c6 -5 28 -20 50 -33 l40 -23 -25 24 c-14 14 -27 24 -29
22 -2 -1 -13 3 -25 9 -11 6 -16 6 -11 1z"/>
<path d="M28660 32835 c0 -2 10 -10 23 -16 20 -11 21 -11 8 4 -13 16 -31 23
-31 12z"/>
<path d="M28710 32806 c0 -3 9 -10 20 -16 11 -6 20 -8 20 -6 0 3 -9 10 -20 16
-11 6 -20 8 -20 6z"/>
<path d="M28847 32719 c7 -7 15 -10 18 -7 3 3 -2 9 -12 12 -14 6 -15 5 -6 -5z"/>
<path d="M28910 32682 c33 -28 105 -68 96 -54 -3 6 -19 17 -34 24 -15 8 -40
22 -57 32 l-30 18 25 -20z"/>
<path d="M33190 31628 c0 -7 7 -66 15 -130 14 -106 14 -123 -1 -187 -8 -39
-14 -75 -12 -79 2 -5 96 53 211 128 l208 137 -138 27 c-179 35 -167 30 -148
65 8 17 12 32 7 34 -4 3 -37 8 -74 12 -55 6 -68 5 -68 -7z"/>
<path d="M9251 31428 c-12 -20 -11 -24 10 -41 291 -230 530 -517 623 -747 98
-239 81 -442 -50 -627 -77 -107 -168 -173 -309 -220 -74 -25 -93 -27 -255 -27
-146 -1 -193 3 -282 22 -142 30 -303 82 -447 143 -64 27 -119 49 -122 49 -3 0
-11 -12 -18 -27 -14 -30 -19 -22 69 -98 30 -27 90 -81 133 -121 l77 -73 -55
-11 c-63 -13 -88 -39 -78 -79 14 -60 46 -65 149 -22 l70 28 106 -116 c192
-210 319 -377 395 -521 l40 -75 204 -93 c208 -95 472 -216 1089 -497 515 -235
793 -367 808 -384 9 -11 11 -11 6 -2 -4 9 -3 12 4 7 7 -4 1 -22 -18 -53 -17
-26 -30 -51 -30 -55 0 -5 -17 -39 -38 -76 -21 -37 -40 -71 -41 -77 -11 -32
-17 -46 -46 -110 -34 -74 -54 -119 -76 -172 -8 -18 -17 -33 -21 -33 -5 0 -7
-3 -6 -7 3 -18 -43 -123 -54 -123 -5 0 -6 -4 -3 -10 3 -5 0 -20 -7 -32 -6 -13
-13 -27 -14 -33 -1 -5 -6 -24 -9 -41 l-7 -31 59 -6 c258 -28 386 -18 404 32
93 251 422 936 624 1301 207 374 565 939 773 1220 38 52 68 97 66 99 -2 3 -20
-11 -40 -30 l-36 -34 31 45 c45 65 50 108 16 148 -23 27 -34 32 -71 32 -35 0
-51 -6 -81 -32 l-37 -33 20 30 c51 75 57 129 20 172 -21 24 -27 26 -38 14 -11
-12 -11 -13 1 -6 10 6 12 4 7 -4 -5 -7 -15 -10 -24 -6 -9 3 -13 3 -9 -1 6 -6
-32 -66 -53 -84 -3 -3 -28 -34 -56 -70 -57 -74 -152 -209 -139 -198 11 10 65
-47 65 -70 0 -17 -75 -113 -109 -139 -9 -7 -30 -13 -48 -13 -81 0 -64 89 52
275 45 72 85 137 90 145 15 28 -19 -10 -110 -125 -49 -61 -102 -118 -121 -127
-18 -10 -36 -22 -39 -28 -10 -16 -62 -12 -79 6 -9 8 -16 23 -16 33 0 21 54
126 118 229 27 42 58 93 70 113 l22 36 -188 128 c-103 71 -523 359 -933 641
l-746 512 -69 -8 c-95 -13 -335 -12 -452 1 -225 24 -467 88 -639 169 -47 22
-86 40 -87 40 -1 0 -7 -10 -15 -22z m3442 -1879 c34 -15 51 -54 35 -82 -23
-44 -99 -125 -124 -131 -30 -8 -60 7 -69 34 -7 22 43 124 81 165 25 28 41 30
77 14z"/>
<path d="M8709 29451 c-36 -9 -73 -22 -83 -30 -22 -18 -20 -63 3 -92 l19 -24
87 30 c47 16 90 34 94 40 19 24 19 57 0 76 -22 22 -32 22 -120 0z"/>
<path d="M8701 29244 c-35 -8 -70 -19 -77 -25 -30 -25 -4 -109 34 -109 9 0 52
12 95 26 88 29 110 53 89 99 -14 29 -40 31 -141 9z"/>
<path d="M8731 29032 c-61 -19 -77 -37 -67 -75 9 -39 39 -42 112 -11 68 29 89
59 64 89 -16 19 -41 18 -109 -3z"/>
<path d="M4195 28844 c-335 -48 -617 -208 -889 -503 -248 -271 -397 -560 -472
-916 -21 -97 -27 -159 -31 -321 -13 -473 70 -783 305 -1144 148 -228 276 -354
548 -545 281 -196 473 -308 734 -430 978 -454 2354 -695 3784 -660 193 5 303
11 293 16 -9 5 -104 43 -211 84 -242 92 -288 115 -346 175 -25 26 -56 51 -69
55 -27 8 -87 83 -126 157 l-29 56 -56 -5 c-66 -6 -93 5 -115 47 -23 44 -10 77
43 111 54 34 51 37 -9 9 -77 -35 -147 -18 -167 39 -13 38 -6 69 25 102 l25 27
-65 -5 c-60 -5 -67 -4 -91 20 -38 38 -36 95 4 140 l30 35 -28 5 c-47 9 -74 38
-75 80 -2 64 58 122 160 154 50 16 54 19 47 43 -18 70 -54 259 -54 287 0 30
-2 32 -57 44 -32 6 -181 38 -332 69 l-275 58 -104 -99 c-118 -113 -255 -208
-393 -274 -86 -40 -238 -94 -311 -109 -21 -5 -34 -20 -58 -70 -57 -121 -178
-206 -313 -222 -63 -7 -175 17 -226 49 -85 52 -158 139 -147 175 12 38 154 91
244 92 39 0 40 10 3 63 -76 110 -153 165 -323 232 -209 82 -278 113 -357 162
-97 60 -231 195 -303 303 -57 86 -150 264 -186 356 l-20 50 28 145 c145 751
443 1259 848 1446 l77 36 100 -12 c499 -57 1102 -281 1489 -552 111 -78 299
-264 345 -341 93 -160 107 -254 67 -447 -14 -69 -25 -125 -23 -126 1 -1 90
-20 197 -42 165 -35 197 -39 206 -27 16 20 38 17 132 -15 448 -156 951 -741
1394 -1620 70 -139 128 -257 128 -262 0 -5 -23 -11 -50 -15 -28 -4 -49 -8 -47
-10 2 -2 219 -87 482 -188 l478 -185 -7 117 c-3 64 -15 160 -26 212 -11 52
-20 96 -20 97 0 4 102 -6 249 -23 168 -20 361 -58 499 -100 63 -19 116 -34
117 -32 1 2 17 73 34 158 114 549 299 1188 500 1724 39 104 71 191 71 192 0 2
-12 4 -27 4 -59 0 -518 71 -712 109 -248 50 -393 90 -486 136 -59 28 -78 44
-117 98 -67 90 -232 245 -320 301 -174 108 -342 156 -578 163 -191 6 -336 -13
-498 -66 -52 -17 -101 -31 -111 -31 -28 0 -205 48 -424 116 -114 35 -221 64
-237 64 -43 0 -112 -67 -167 -161 l-44 -77 -132 78 c-737 430 -1509 690 -2269
761 -75 7 -135 16 -132 20 2 4 -20 27 -49 51 -167 143 -378 248 -589 294 -70
15 -320 27 -383 18z"/>
<path d="M35220 28408 c-85 -50 -212 -124 -283 -165 -145 -86 -142 -81 -141
-218 0 -139 45 -233 170 -360 60 -60 323 -269 330 -262 2 1 39 179 85 396 87
421 87 413 27 406 -33 -5 -33 -13 -9 145 20 124 17 151 -13 149 -6 0 -81 -41
-166 -91z"/>
<path d="M36205 27623 c-43 -164 -82 -305 -86 -314 -5 -9 -25 -19 -46 -23 -65
-10 -419 -73 -628 -111 -396 -71 -938 -166 -1344 -234 -228 -39 -416 -73 -418
-75 -3 -3 27 -92 65 -198 280 -770 484 -1589 598 -2403 9 -66 18 -121 19 -123
2 -2 392 93 866 211 884 220 938 233 929 224 -5 -5 -949 -465 -1454 -707
l-298 -144 6 -60 c11 -118 27 -353 35 -544 4 -106 10 -195 13 -198 3 -3 44 13
90 34 l85 39 155 189 c157 191 204 235 301 279 109 50 214 42 349 -26 l58 -29
608 286 c334 157 612 289 618 292 7 5 -25 52 -85 127 -91 114 -96 122 -96 168
0 43 4 52 37 83 52 47 102 47 155 2 l37 -33 -42 56 c-55 73 -66 106 -53 156
12 44 42 76 84 92 80 31 113 8 260 -182 116 -151 187 -231 187 -213 0 24 -49
89 -168 221 -74 83 -141 165 -149 184 -21 49 -9 113 28 156 57 65 150 72 219
16 l38 -30 4 50 c9 87 95 151 183 135 26 -5 58 -27 112 -77 41 -39 77 -68 79
-66 5 4 -40 170 -59 222 -9 22 -18 87 -21 145 -3 58 -21 197 -41 309 -19 112
-35 207 -35 211 0 4 -19 12 -42 19 -103 31 -223 115 -305 212 -100 122 -169
324 -161 476 4 69 10 93 41 156 44 88 120 165 215 215 52 28 61 37 57 55 -2
12 -11 62 -20 110 -21 118 -46 181 -104 264 -27 38 -61 93 -76 123 -38 74 -96
158 -136 196 -33 31 -563 374 -578 374 -4 0 -43 -134 -86 -297z"/>
<path d="M7730 25738 c-138 -60 -130 -55 -130 -91 0 -36 30 -77 56 -77 20 0
145 68 162 88 15 20 16 64 0 80 -15 15 -54 14 -88 0z"/>
<path d="M7794 25532 c-39 -15 -79 -33 -88 -41 -36 -30 -7 -111 40 -111 24 0
122 49 157 78 10 9 17 29 17 49 0 27 -5 35 -26 43 -14 6 -26 10 -27 9 -1 0
-34 -12 -73 -27z"/>
<path d="M7813 25326 c-35 -13 -70 -29 -78 -36 -19 -16 -19 -60 1 -88 22 -31
58 -27 139 16 63 33 70 40 73 70 7 66 -31 77 -135 38z"/>
<path d="M7850 25112 c-60 -30 -70 -50 -46 -87 22 -33 50 -31 116 9 50 29 55
36 55 67 0 32 -2 34 -35 36 -22 2 -56 -8 -90 -25z"/>
<path d="M37421 24510 c29 -36 55 -67 56 -69 2 -2 6 -1 10 3 4 4 -22 35 -57
69 l-63 62 54 -65z"/>
<path d="M10306 24504 c-3 -9 -6 -31 -6 -50 0 -20 -4 -33 -8 -30 -5 3 -6 -8
-4 -25 3 -17 0 -29 -7 -29 -7 0 -9 -9 -5 -25 3 -13 1 -38 -4 -55 -6 -16 -7
-32 -3 -34 4 -3 50 1 102 9 117 18 119 18 119 0 0 -8 -5 -15 -11 -15 -7 0 -9
-13 -5 -37 5 -29 4 -34 -4 -23 -9 12 -10 8 -5 -15 3 -17 1 -62 -5 -100 -6 -39
-16 -110 -21 -160 -6 -49 -12 -103 -14 -120 -2 -16 -7 -68 -10 -115 -3 -46 -9
-88 -14 -93 -5 -5 -6 -29 -3 -54 3 -32 1 -48 -9 -55 -12 -8 -11 -9 1 -5 8 3
57 15 108 28 89 22 96 22 138 7 43 -15 44 -15 44 4 0 52 34 386 60 597 17 129
28 236 26 238 -3 4 -446 173 -452 173 -1 0 -5 -7 -8 -16z"/>
<path d="M8105 23882 c-327 -97 -548 -167 -576 -184 -139 -82 -217 -267 -205
-488 6 -122 25 -200 76 -324 l37 -90 -23 -52 c-59 -135 -65 -266 -31 -708 l22
-278 462 -257 c255 -141 463 -259 463 -262 0 -4 -187 -160 -415 -349 -397
-327 -415 -344 -415 -376 0 -93 52 -694 66 -760 22 -107 59 -202 108 -278 29
-43 45 -81 50 -112 12 -93 42 -127 324 -363 l262 -221 28 17 c15 9 -39 -51
-119 -133 -184 -188 -289 -306 -418 -470 -56 -71 -108 -136 -115 -144 -7 -8
-75 -63 -152 -122 -76 -59 -190 -148 -253 -197 -191 -150 -251 -175 -545 -227
-359 -62 -466 -99 -466 -159 0 -60 166 -208 328 -293 98 -50 214 -92 258 -92
40 0 27 -16 -33 -43 -70 -31 -183 -63 -278 -77 -118 -18 -131 -65 -37 -127
199 -130 414 -186 626 -163 100 11 268 44 313 61 20 7 31 -2 106 -89 103 -120
177 -212 295 -368 162 -215 293 -320 398 -323 120 -2 286 -50 342 -98 17 -16
66 -89 108 -163 95 -169 255 -434 288 -478 13 -19 22 -40 20 -47 -7 -16 89
-143 147 -193 58 -52 102 -61 156 -33 54 27 133 115 174 194 19 38 45 72 62
82 15 9 46 40 68 68 92 116 139 257 142 424 1 57 2 103 2 103 1 0 43 -23 95
-51 180 -96 219 -111 301 -116 147 -10 329 33 337 79 5 24 -45 52 -149 86
l-87 28 38 32 c56 47 90 122 90 199 0 120 -46 206 -210 393 -83 94 -150 200
-150 238 0 7 -22 68 -49 135 -26 67 -51 134 -55 150 -9 38 9 67 42 67 44 0
309 56 567 120 216 53 681 182 689 191 2 2 -14 103 -35 224 -21 121 -39 231
-39 243 0 45 30 90 74 112 56 27 63 26 71 -12 4 -18 15 -46 23 -63 16 -30 18
-36 20 -68 1 -10 6 -15 12 -12 5 3 12 -6 16 -20 4 -15 11 -22 18 -18 6 3 6 1
-1 -8 -17 -17 -17 -34 0 -21 10 8 13 6 13 -8 0 -10 -4 -16 -8 -14 -4 3 -8 0
-8 -5 0 -6 7 -11 15 -11 9 0 12 -6 8 -17 -4 -10 -2 -14 4 -10 10 6 20 -16 29
-62 1 -8 8 -17 14 -21 6 -4 12 -13 13 -21 2 -8 7 -20 11 -28 7 -10 5 -12 -5
-7 -8 4 -6 1 4 -7 20 -16 23 -31 5 -22 -7 3 -3 -2 10 -11 12 -9 22 -23 22 -31
0 -8 7 -29 16 -46 9 -18 21 -40 26 -51 6 -10 18 -33 27 -50 10 -17 17 -39 15
-49 -1 -9 4 -17 13 -17 8 0 13 -7 11 -18 -1 -10 7 -30 18 -44 l21 -27 30 32
c17 18 33 40 36 50 4 10 17 17 32 17 61 0 125 63 125 123 0 17 5 27 15 27 8 0
15 2 15 3 0 2 -40 87 -89 188 -392 811 -725 1796 -909 2689 -184 887 -260
1682 -250 2608 l4 412 -55 0 c-31 0 -123 -5 -206 -10 -82 -6 -343 -21 -580
-35 -236 -14 -488 -29 -560 -34 -71 -5 -133 -6 -136 -2 -4 3 -31 62 -62 131
-163 371 -384 813 -409 817 -7 1 -251 -69 -543 -155z"/>
<path d="M36288 23669 c-16 -6 -28 -14 -28 -19 0 -4 -20 -15 -45 -23 -64 -22
-130 -71 -149 -110 -11 -24 -21 -101 -32 -248 -9 -118 -19 -217 -23 -221 -3
-3 -136 -72 -296 -152 -299 -150 -426 -221 -511 -285 -36 -27 -101 -110 -249
-317 -110 -155 -273 -383 -363 -507 -89 -125 -166 -237 -172 -249 -5 -13 -18
-113 -30 -223 -11 -110 -35 -294 -52 -410 -17 -115 -31 -235 -31 -265 0 -49
292 -1372 305 -1385 3 -3 115 10 249 29 134 19 321 44 414 57 94 12 174 25
178 29 4 4 -11 24 -35 45 -24 21 -126 117 -228 214 -102 97 -212 202 -245 233
l-60 57 45 -11 c328 -78 789 -211 1158 -334 140 -46 266 -84 280 -84 15 0 159
18 320 40 633 86 1045 131 1060 115 10 -9 -56 -175 -100 -252 l-47 -82 11 -60
c8 -44 8 -76 1 -118 -10 -50 -9 -60 5 -72 38 -30 410 -204 587 -274 232 -92
388 -141 653 -206 881 -218 1651 -283 2231 -190 427 68 763 221 996 454 226
225 348 513 370 870 4 61 16 155 28 210 28 135 30 372 4 495 -74 347 -274 628
-612 859 -456 312 -1050 493 -1995 608 -209 25 -719 25 -915 0 -297 -39 -591
-101 -871 -183 l-122 -36 14 -42 c8 -22 18 -79 21 -126 l6 -85 -74 69 c-178
166 -414 311 -644 397 -50 19 -114 51 -145 75 -81 61 -216 147 -285 182 -78
39 -214 86 -290 101 -103 21 -98 18 -78 53 32 54 94 118 137 140 37 20 57 22
201 22 158 1 161 1 227 33 54 25 178 108 178 118 0 2 -59 38 -131 80 -73 44
-128 83 -126 89 3 7 13 40 23 75 14 50 23 65 43 73 139 57 264 131 319 191
l24 25 -24 16 c-103 67 -227 95 -350 78 -45 -7 -82 -11 -83 -9 -1 1 -27 34
-57 73 -105 132 -164 167 -286 169 l-82 2 -59 84 c-32 46 -60 93 -62 104 -5
23 -57 30 -101 14z m3766 -2119 c43 -107 54 -213 71 -659 17 -446 35 -638 75
-841 107 -535 355 -843 775 -965 48 -14 97 -25 109 -25 11 0 27 -4 35 -9 11
-7 -4 -21 -57 -55 -163 -104 -356 -183 -554 -228 -146 -33 -396 -32 -583 1
-524 93 -963 307 -1280 626 -148 150 -252 303 -325 480 l-37 90 -232 34 c-128
18 -234 31 -237 28 -3 -3 -11 -41 -16 -84 -6 -43 -12 -79 -13 -81 -5 -6 -172
98 -280 173 -211 148 -409 332 -526 488 -75 100 -163 278 -185 372 -44 190 -6
383 96 485 127 127 371 146 700 54 157 -44 400 -142 400 -162 0 -4 -9 -74 -21
-155 -12 -81 -19 -151 -16 -154 5 -4 433 -73 459 -73 3 0 30 30 59 67 273 347
736 567 1319 626 19 2 83 5 141 5 l107 2 16 -40z"/>
<path d="M33877 18625 c-12 -86 -8 -171 8 -185 24 -20 59 -4 78 35 24 50 22
61 -21 114 -22 25 -43 54 -49 65 -8 15 -11 10 -16 -29z"/>
<path d="M35613 18571 c-310 -42 -562 -78 -562 -81 1 -3 36 -38 79 -78 l77
-73 134 -35 c219 -58 618 -150 885 -204 287 -58 594 -113 600 -107 2 2 -14 40
-36 85 -39 77 -52 91 -301 326 -213 201 -266 246 -287 245 -15 -1 -280 -36
-589 -78z"/>
<path d="M34036 18471 c-10 -16 -17 -81 -11 -100 8 -27 40 -44 65 -36 20 6 50
53 50 77 0 14 -98 70 -104 59z"/>
<path d="M34412 18397 c-7 -7 -17 -45 -24 -85 -15 -88 -4 -122 41 -122 36 0
43 9 70 89 26 80 27 107 2 121 -27 14 -76 13 -89 -3z"/>
<path d="M34193 18348 c-11 -83 0 -108 49 -108 25 0 32 7 53 53 13 28 27 64
30 80 l7 27 -66 0 -65 0 -8 -52z"/>
<path d="M12159 16591 c-16 -17 -29 -40 -29 -54 0 -22 -5 -25 -46 -30 -52 -5
-91 -30 -114 -71 -13 -24 -13 -28 1 -36 9 -5 29 -34 44 -65 16 -30 32 -55 37
-55 4 0 8 -9 8 -20 0 -10 7 -23 15 -28 9 -4 17 -18 18 -29 0 -12 4 -21 7 -21
20 2 28 -4 26 -19 -2 -10 1 -21 7 -25 6 -3 12 -16 14 -28 2 -12 14 -31 28 -42
14 -11 25 -26 25 -34 0 -8 5 -14 10 -14 6 0 10 -7 10 -15 0 -8 5 -15 10 -15 6
0 10 -7 10 -15 0 -8 4 -15 8 -15 5 0 9 -6 9 -13 0 -17 33 -67 45 -67 5 0 6 -4
3 -10 -3 -5 -1 -10 5 -10 6 0 9 -4 6 -9 -3 -5 1 -14 9 -21 8 -7 15 -19 15 -26
0 -8 5 -13 11 -11 6 1 14 -5 16 -13 4 -12 3 -12 -5 -1 -6 9 -12 10 -16 2 -8
-13 -15 -10 -188 72 -75 36 -145 68 -157 72 -24 7 -71 61 -71 81 0 8 -3 14 -6
14 -4 0 -46 -24 -93 -54 -132 -82 -238 -140 -349 -190 -212 -95 -501 -190
-731 -240 -62 -13 -117 -28 -121 -33 -13 -13 -69 -179 -94 -282 -43 -169 -59
-302 -59 -501 -1 -197 10 -303 50 -495 79 -380 287 -818 493 -1039 89 -94 97
-98 200 -80 286 50 539 193 689 391 61 81 140 233 167 322 13 46 30 76 59 105
106 109 441 287 945 503 96 41 195 84 220 96 25 11 118 50 208 87 l163 67 -78
89 c-298 339 -586 710 -876 1129 -155 225 -186 272 -354 547 -105 173 -109
178 -141 178 -24 0 -42 -9 -63 -29z"/>
<path d="M38895 16313 c-212 -17 -475 -55 -570 -82 l-30 -8 40 -11 c22 -6 77
-20 121 -31 214 -54 494 -177 607 -266 116 -92 149 -176 87 -228 -52 -44 -92
-52 -267 -52 -188 0 -179 8 -113 -105 128 -218 310 -347 680 -480 170 -62 226
-88 276 -132 133 -117 89 -297 -165 -676 -225 -337 -347 -595 -383 -813 l-11
-71 -81 7 c-287 24 -668 121 -949 241 l-78 34 21 -28 c60 -76 238 -257 335
-340 253 -216 492 -339 769 -394 79 -16 134 -19 256 -18 246 4 270 4 370 -5
236 -19 454 76 670 294 201 202 347 450 454 774 119 358 138 721 50 943 -35
86 -100 173 -157 209 -42 27 -46 34 -62 100 -66 271 -197 509 -379 690 -223
221 -491 352 -851 415 -191 34 -462 48 -640 33z"/>
<path d="M32223 15648 c-20 -27 -23 -37 -11 -44 7 -4 10 -4 6 1 -11 11 11 47
24 39 7 -4 8 -3 4 4 -9 15 -11 15 -23 0z"/>
<path d="M32172 15580 c-7 -11 -12 -25 -12 -32 0 -7 7 0 15 16 18 33 15 45 -3
16z"/>
<path d="M32120 15507 c-20 -32 -23 -52 -4 -36 8 6 12 14 9 17 -3 3 0 11 7 19
6 7 9 15 7 18 -3 2 -11 -6 -19 -18z"/>
<path d="M32074 15448 c-4 -7 -14 -24 -22 -38 -13 -24 -13 -24 2 -5 9 11 23
25 32 32 9 6 11 14 5 17 -5 4 -13 1 -17 -6z"/>
<path d="M32023 15365 c0 -8 4 -12 9 -9 5 3 6 10 3 15 -9 13 -12 11 -12 -6z"/>
<path d="M31983 15328 c-20 -26 -26 -41 -15 -34 12 7 36 46 29 46 -3 0 -9 -6
-14 -12z"/>
<path d="M32244 15285 c-6 -14 -302 -242 -345 -265 -28 -16 -95 -7 -120 16
-10 9 -20 15 -22 13 -25 -34 -254 -299 -356 -413 -288 -319 -553 -584 -920
-920 -30 -28 -49 -52 -43 -54 7 -2 12 -13 12 -24 0 -11 15 -35 34 -54 48 -48
89 -46 262 14 77 27 146 52 155 56 16 7 197 -156 484 -435 66 -64 183 -174
260 -245 293 -269 593 -551 667 -629 l77 -80 153 -403 c84 -224 159 -407 168
-412 8 -4 82 -18 163 -30 143 -22 151 -22 209 -6 70 19 82 27 161 98 140 126
194 179 205 201 11 19 -26 127 -293 856 -168 459 -303 836 -300 839 3 3 416
-35 918 -85 l912 -91 37 42 c21 22 47 61 59 86 34 68 40 81 76 140 76 125 101
307 56 400 -13 25 -62 87 -110 139 l-88 93 -300 -1 c-165 -1 -336 -4 -380 -7
-62 -5 -83 -3 -92 7 -6 8 -90 167 -188 354 -97 187 -180 343 -184 348 -4 4
-110 -18 -236 -49 -125 -31 -237 -54 -249 -52 -12 3 -203 131 -424 286 -222
155 -406 282 -408 282 -3 0 -7 -7 -10 -15z"/>
<path d="M31945 15270 c4 -6 11 -8 16 -5 14 9 11 15 -7 15 -8 0 -12 -5 -9 -10z"/>
<path d="M31905 15230 c-3 -5 -1 -10 4 -10 6 0 11 5 11 10 0 6 -2 10 -4 10 -3
0 -8 -4 -11 -10z"/>
<path d="M31878 15193 c-8 -10 -18 -27 -22 -38 -6 -18 -5 -19 7 -3 8 10 17 15
21 11 4 -4 4 1 0 11 -5 12 -4 17 3 13 5 -3 10 0 10 8 0 19 -1 19 -19 -2z"/>
<path d="M31807 15103 c-17 -19 -27 -40 -24 -50 4 -17 5 -17 6 0 0 10 5 16 10
13 5 -3 8 2 7 11 0 9 9 22 21 28 12 6 19 16 15 21 -4 6 -19 -4 -35 -23z"/>
<path d="M34230 15006 c0 -3 87 -181 194 -395 l195 -388 445 131 c245 71 442
134 438 138 -12 12 -1215 510 -1244 516 -16 2 -28 1 -28 -2z"/>
<path d="M13364 14452 c16 -17 32 -30 34 -27 3 3 15 -3 26 -12 12 -10 8 -3 -8
15 -16 17 -32 30 -34 27 -3 -3 -15 3 -26 12 -12 10 -8 3 8 -15z"/>
<path d="M13449 14378 c7 -10 10 -18 6 -18 -4 0 -2 -6 4 -13 6 -8 7 -18 3 -22
-4 -5 -1 -5 6 -1 9 6 10 11 3 20 -6 7 -9 15 -6 18 3 3 -3 11 -12 19 -16 13
-17 12 -4 -3z"/>
<path d="M13379 13812 c-311 -312 -679 -683 -819 -824 -211 -214 -259 -258
-282 -258 -18 0 -28 5 -28 15 0 8 61 186 135 397 74 210 133 384 131 386 -2 2
-82 -34 -177 -78 -96 -45 -367 -172 -604 -282 -236 -110 -431 -201 -432 -202
0 0 -25 -134 -53 -296 -38 -216 -60 -312 -80 -360 -28 -64 -50 -158 -50 -211
l0 -27 68 15 c128 27 195 32 220 17 12 -8 22 -23 22 -33 0 -25 -62 -71 -148
-111 -40 -18 -71 -35 -69 -36 2 -2 47 10 101 27 77 24 107 29 144 23 50 -7 82
-27 82 -52 0 -20 -57 -84 -94 -104 -39 -22 -31 -22 25 -3 59 21 143 11 164
-18 21 -30 20 -32 -27 -81 -29 -30 -71 -57 -126 -82 -45 -20 -81 -39 -79 -40
2 -2 42 9 88 25 137 46 238 24 213 -47 -8 -22 -37 -41 -149 -98 -77 -39 -147
-73 -155 -76 -18 -6 11 -51 98 -152 81 -93 447 -426 469 -426 10 0 236 36 503
80 266 43 486 77 488 75 4 -3 -79 -828 -95 -950 l-5 -41 201 -184 c111 -102
230 -203 264 -226 397 -263 753 -343 1012 -229 28 12 230 141 450 287 220 145
504 331 631 413 l231 149 133 250 c434 815 441 829 428 837 -21 14 -120 10
-174 -6 -27 -8 -121 -56 -209 -108 -88 -51 -366 -214 -618 -361 -252 -147
-460 -266 -462 -264 -3 3 114 136 473 538 91 102 174 195 185 207 l20 22 -113
131 c-62 72 -110 133 -108 135 2 3 20 -11 38 -30 40 -41 68 -44 99 -11 32 33
22 62 -34 106 -24 19 -43 36 -41 37 10 10 60 -23 122 -81 40 -36 75 -66 79
-66 4 0 -24 35 -62 78 -68 74 -99 119 -90 128 2 2 23 -16 46 -41 47 -50 79
-57 111 -25 36 36 28 59 -38 114 -32 26 -39 36 -25 36 10 0 68 -46 128 -102
61 -56 87 -77 59 -47 -88 94 -124 139 -124 152 0 6 20 -9 45 -35 50 -54 80
-61 113 -25 33 35 27 54 -30 108 -45 42 -49 48 -24 39 16 -6 71 -49 122 -96
52 -48 94 -84 94 -81 0 3 -34 45 -75 93 -77 90 -101 133 -42 76 39 -37 70 -41
91 -10 22 31 21 36 -21 76 -29 27 -18 22 47 -23 47 -32 93 -65 103 -74 16 -13
20 -13 41 10 35 36 439 492 454 510 11 15 -3 27 -120 100 -776 485 -1482 1045
-2124 1687 l-201 201 -564 -567z"/>
<path d="M29967 13286 c-529 -421 -1110 -809 -1702 -1133 -174 -96 -667 -343
-742 -372 l-31 -13 53 -113 c73 -156 72 -150 36 -184 -32 -30 -46 -66 -16 -41
13 11 14 10 9 -6 -5 -15 -2 -14 11 4 9 13 23 21 31 18 7 -3 19 0 26 7 18 17
66 37 80 33 7 -1 9 -1 5 2 -5 2 0 10 11 18 26 18 72 35 70 26 -1 -4 1 -22 5
-39 9 -44 41 -51 98 -23 24 12 39 17 33 11 -5 -6 -66 -40 -135 -76 -68 -35
-121 -65 -118 -65 4 0 55 19 115 41 154 59 189 69 205 58 9 -6 10 -9 2 -9 -7
0 -37 -9 -68 -21 -63 -24 -76 -48 -51 -98 21 -40 57 -41 129 -5 50 26 51 26
32 4 -11 -12 -46 -34 -78 -48 -90 -39 -61 -36 40 5 60 23 98 33 110 28 14 -6
5 -12 -42 -29 -33 -11 -66 -25 -73 -29 -32 -21 4 -107 46 -107 9 0 41 11 70
25 66 31 71 31 44 2 -12 -12 -58 -40 -102 -62 -44 -21 -78 -40 -76 -42 2 -2
40 10 84 27 45 17 94 30 109 28 23 -3 16 -7 -40 -26 -76 -27 -90 -48 -63 -101
20 -38 46 -40 115 -10 27 11 56 22 66 23 9 1 21 9 26 17 5 8 9 10 9 4 0 -7 3
-7 8 0 4 6 25 19 47 30 22 11 42 22 45 25 10 10 50 30 60 30 6 0 20 8 31 18
10 11 32 25 47 32 15 7 36 17 47 23 11 6 39 21 63 33 23 13 43 26 43 31 0 4
16 14 37 21 20 7 40 19 45 27 4 8 14 15 21 15 8 0 44 18 80 40 36 22 70 40 76
40 5 0 10 3 10 8 0 4 16 16 35 26 19 11 35 22 35 26 0 4 20 14 44 21 25 7 42
17 40 21 -3 5 3 11 13 15 10 3 34 19 53 35 19 15 41 28 50 28 14 0 30 12 97
69 12 10 25 16 28 13 3 -3 5 0 5 6 0 6 10 12 23 14 12 2 21 9 19 16 -1 6 6 12
17 12 10 0 30 11 45 25 15 14 32 25 37 25 6 0 24 13 42 30 18 16 38 30 45 30
6 0 12 5 12 10 0 6 6 10 13 10 6 0 26 14 44 30 18 17 37 30 42 30 6 0 11 5 11
10 0 6 9 10 20 10 11 0 20 6 20 13 0 7 22 24 50 38 27 13 52 32 56 42 3 9 10
17 16 17 6 0 26 11 44 25 18 14 37 25 43 25 6 0 11 7 11 15 0 8 6 15 14 15 8
0 17 7 20 15 3 9 14 15 23 13 10 -2 17 2 16 10 -2 6 3 12 11 12 13 0 58 35
113 88 13 12 27 22 31 22 7 0 20 10 102 83 23 20 49 37 57 37 8 0 12 4 9 8 -3
5 4 16 15 25 10 10 19 12 19 6 0 -8 5 -7 15 1 9 7 13 15 10 18 -3 3 7 13 23
23 15 11 35 24 46 31 10 7 33 27 50 44 17 17 37 29 44 27 8 -3 10 1 5 14 -20
54 -454 843 -464 843 -3 0 -76 -56 -162 -124z"/>
<path d="M35785 12624 c-137 -14 -238 -26 -295 -36 l-65 -11 54 -18 c216 -74
452 -239 712 -499 131 -130 349 -380 349 -398 0 -4 -33 -20 -73 -36 -382 -152
-780 -415 -1042 -687 -87 -90 -205 -230 -205 -242 0 -3 24 5 54 18 29 13 91
35 137 49 89 27 361 96 375 96 5 0 -43 -21 -106 -46 -301 -118 -592 -288 -860
-503 l-25 -21 26 0 c38 0 138 -37 183 -66 49 -33 126 -104 126 -116 0 -23
-182 33 -300 92 -110 56 -214 133 -307 227 -135 137 -227 295 -293 502 -23 69
-39 107 -43 98 -16 -42 -29 -198 -23 -277 38 -463 293 -897 733 -1247 497
-396 1086 -620 1573 -600 325 13 578 112 833 325 105 88 201 201 307 360 58
86 105 145 137 170 198 157 292 435 280 827 -9 325 -87 622 -244 928 -311 607
-850 999 -1504 1092 -110 16 -412 27 -494 19z"/>
<path d="M26780 11468 c-112 -45 -437 -159 -584 -204 -109 -33 -130 -43 -138
-64 -5 -13 -6 -26 -1 -27 25 -9 74 -45 88 -66 8 -13 16 -42 18 -64 2 -26 12
-51 30 -72 29 -35 36 -86 15 -124 -16 -30 -195 -219 -221 -234 -30 -17 -416
-18 -452 -1 -34 15 -55 57 -55 108 0 33 6 48 29 71 l29 29 -49 0 c-40 0 -55 5
-81 29 -29 26 -33 36 -33 79 0 39 5 56 23 75 25 26 108 55 95 33 -4 -7 -1 -7
8 1 9 7 71 18 140 24 135 12 219 40 199 64 -8 10 -2 15 27 21 21 4 44 8 51 7
6 0 12 4 12 9 0 6 6 8 14 5 8 -3 17 0 20 8 3 8 0 12 -7 10 -7 -1 -34 -9 -62
-16 -27 -6 -54 -15 -60 -18 -5 -3 -12 -6 -15 -6 -36 -6 -69 -19 -65 -26 4 -5
-1 -6 -9 -3 -9 3 -24 3 -33 -1 -10 -5 -27 -9 -38 -11 -11 -1 -144 -32 -295
-68 -468 -110 -884 -188 -1277 -237 -103 -13 -183 -28 -183 -34 0 -5 61 -320
135 -699 74 -378 135 -697 135 -707 0 -10 -49 -69 -108 -131 -60 -62 -177
-185 -260 -273 l-152 -159 22 -22 c13 -12 160 -144 327 -293 l304 -273 37 37
37 37 5 -33 c4 -24 -1 -39 -22 -63 -15 -17 -121 -148 -235 -290 l-209 -259
170 -164 c148 -143 167 -164 151 -174 -38 -23 -216 -169 -291 -240 -89 -83
-228 -242 -298 -339 -57 -80 -158 -240 -158 -251 0 -4 19 3 43 16 155 87 316
75 481 -36 223 -149 426 -473 490 -784 9 -44 21 -152 26 -240 30 -498 116
-873 280 -1213 225 -467 574 -792 1001 -936 166 -55 261 -70 444 -70 233 0
366 37 503 138 l63 46 66 -11 c291 -51 695 165 953 509 224 298 332 645 332
1067 0 418 -103 812 -341 1312 -120 252 -161 420 -161 653 1 239 47 423 147
572 82 125 187 187 332 197 l86 6 -70 41 c-223 132 -513 239 -782 289 -48 9
-98 18 -109 21 -19 3 -22 11 -21 51 0 40 -28 296 -61 553 l-7 55 -280 38
c-154 21 -280 39 -280 40 -1 1 -32 90 -69 197 -38 107 -115 326 -171 485 -193
541 -375 1068 -372 1072 2 2 80 -60 173 -138 163 -136 208 -168 219 -157 4 4
-14 189 -39 398 -2 19 -10 92 -17 162 l-12 128 23 20 c15 13 32 18 49 15 14
-3 20 -2 12 1 -11 5 63 36 114 49 6 1 18 5 27 9 9 4 22 4 29 0 7 -4 9 -3 5 4
-8 13 25 24 50 16 14 -4 15 -3 6 4 -11 7 -11 10 2 15 9 4 22 4 30 1 8 -3 17
-1 21 5 3 6 15 11 26 11 10 0 19 4 19 10 0 5 7 7 15 4 8 -4 15 -1 15 6 0 7 7
10 16 6 8 -3 12 -2 9 3 -7 12 31 24 46 15 7 -4 9 -3 6 3 -4 6 0 14 9 17 8 3
12 2 9 -4 -3 -6 0 -10 8 -10 11 0 13 10 11 38 -2 20 -11 101 -19 179 -8 78
-15 145 -15 148 0 10 -25 3 -100 -27z m-950 -349 c0 -5 -14 -9 -31 -9 -18 0
-28 4 -24 10 4 6 10 8 15 5 5 -3 11 -1 15 5 7 12 25 4 25 -11z m-55 -2791
l150 -157 179 129 c98 72 180 129 181 128 2 -2 91 -184 198 -406 l195 -402
-30 -108 c-16 -59 -31 -119 -35 -134 -6 -31 -7 -31 -198 -79 -71 -18 -134 -35
-138 -39 -5 -4 2 -47 15 -95 l23 -87 85 -24 c47 -13 140 -51 208 -84 355 -175
663 -529 847 -975 42 -101 95 -260 95 -283 0 -10 -17 -28 -37 -42 -66 -45
-218 -205 -280 -296 -63 -92 -107 -175 -137 -255 l-18 -47 -76 38 c-427 214
-1030 179 -1565 -90 -183 -92 -184 -87 10 -93 136 -4 186 -10 263 -30 80 -21
246 -86 185 -72 -99 22 -323 36 -524 33 l-224 -3 -14 40 c-22 65 -63 232 -84
345 -26 138 -37 496 -20 636 46 378 181 689 394 911 l78 81 -22 84 c-12 46
-25 86 -28 90 -3 3 -86 -15 -184 -41 l-179 -46 -98 100 -98 100 -6 110 c-6
104 -9 158 -21 358 -3 45 -7 129 -10 187 -3 58 -8 133 -11 167 -3 34 -3 66 0
71 2 4 51 3 108 -4 57 -7 132 -16 168 -20 36 -3 87 -10 113 -14 26 -4 50 -4
53 1 2 4 36 146 74 316 39 169 73 317 76 327 7 21 27 2 339 -326z"/>
<path d="M18314 11376 c-38 -17 -60 -69 -45 -107 5 -13 40 -61 78 -107 81
-100 104 -133 97 -144 -3 -4 3 -5 12 -1 12 4 15 3 10 -5 -5 -8 2 -12 23 -12
16 0 33 -4 36 -10 3 -5 15 -10 26 -10 11 0 17 -5 14 -10 -4 -7 3 -9 22 -5 22
5 25 4 13 -4 -11 -8 -8 -10 17 -5 29 6 31 4 29 -20 -2 -14 -8 -31 -13 -38 -11
-14 -1 -129 17 -182 5 -17 10 -47 12 -67 2 -30 5 -35 22 -31 12 3 17 1 12 -6
-4 -7 1 -9 16 -7 29 6 60 -4 52 -16 -3 -6 5 -7 23 -4 23 5 25 4 13 -5 -12 -10
-11 -11 8 -7 13 3 53 -5 90 -17 37 -13 84 -26 105 -30 21 -4 35 -11 33 -15 -3
-4 5 -8 17 -7 12 0 39 -3 59 -8 l36 -8 6 -71 c3 -40 8 -169 11 -287 3 -118 8
-251 10 -295 3 -44 12 -297 21 -561 16 -505 15 -530 -26 -599 -17 -30 -17 -33
95 -495 127 -521 138 -552 234 -642 101 -94 368 -291 551 -406 117 -73 304
-171 385 -202 33 -13 119 -48 190 -78 183 -77 181 -76 195 -41 17 40 92 106
148 130 92 40 170 53 322 53 158 0 262 -16 379 -60 114 -43 150 -97 151 -225
l0 -76 48 -7 c106 -14 449 -18 567 -6 66 6 163 15 215 20 99 8 177 32 237 72
36 25 978 1006 978 1020 0 13 -677 558 -687 552 -12 -7 -11 2 18 170 108 641
280 1864 310 2208 l7 77 -34 -5 c-198 -27 -1042 -42 -1424 -25 -452 20 -881
61 -1283 123 -112 16 -204 29 -206 27 -1 -2 -24 -112 -50 -244 -25 -132 -49
-250 -52 -261 -5 -17 0 -23 23 -28 15 -4 64 -21 107 -39 65 -26 74 -33 52 -35
-18 -2 -30 -12 -37 -29 -15 -41 -2 -61 49 -77 64 -20 52 -19 -95 4 -69 11
-127 19 -129 17 -2 -2 58 -21 133 -43 75 -21 146 -47 157 -56 19 -15 13 -15
-47 3 -65 19 -70 20 -88 3 -11 -10 -19 -30 -19 -50 0 -41 24 -58 95 -70 45 -7
47 -9 17 -12 -18 -2 -78 6 -134 17 -56 12 -103 19 -105 17 -2 -2 55 -18 127
-36 72 -18 141 -41 153 -51 20 -17 18 -17 -40 2 -72 24 -98 17 -108 -30 -9
-40 8 -68 45 -75 16 -3 44 -9 62 -12 24 -5 28 -8 16 -15 -10 -5 -59 -1 -127
12 -62 11 -117 19 -122 17 -5 -2 43 -19 107 -38 65 -19 119 -41 122 -47 3 -10
-7 -9 -38 2 -61 22 -87 19 -106 -11 -27 -41 -9 -76 46 -91 72 -18 16 -14 -145
11 -82 13 -150 23 -151 23 0 -1 -22 -76 -48 -167 -74 -252 -208 -652 -216
-643 -4 4 -32 114 -63 243 -31 129 -104 431 -161 670 -58 239 -133 554 -168
700 l-64 265 52 170 c29 94 51 171 49 173 -1 1 -76 22 -166 46 -247 66 -498
140 -647 190 l-134 45 -28 -62 c-15 -34 -36 -98 -46 -142 l-18 -80 -12 42
c-14 46 -181 270 -217 290 -28 16 -45 15 -83 -1z"/>
<path d="M18093 11302 c-47 -37 -52 -112 -11 -148 12 -11 18 -13 14 -6 -7 11
-4 12 13 3 12 -7 27 -9 33 -5 7 5 8 3 4 -5 -5 -7 -15 -10 -23 -7 -8 3 -11 1
-8 -4 3 -6 18 -7 32 -4 17 5 24 3 19 -4 -4 -6 2 -8 14 -5 11 3 20 0 20 -6 0
-6 9 -11 19 -11 11 0 23 -5 26 -10 4 -6 10 -8 15 -5 5 3 11 1 15 -4 3 -6 12
-8 20 -5 8 4 17 -1 21 -9 3 -9 12 -18 20 -21 10 -4 12 -2 8 6 -5 8 -2 9 10 5
10 -4 20 -7 22 -7 3 0 3 -3 1 -7 -3 -5 8 -8 24 -9 16 -1 29 2 29 6 0 9 -199
252 -219 267 -24 18 -92 15 -118 -5z"/>
<path d="M26022 11199 c2 -6 8 -10 13 -10 5 0 11 4 13 10 2 6 -4 11 -13 11 -9
0 -15 -5 -13 -11z"/>
<path d="M25980 11190 c0 -5 4 -10 9 -10 6 0 13 5 16 10 3 6 -1 10 -9 10 -9 0
-16 -4 -16 -10z"/>
<path d="M18000 11176 c0 -2 7 -7 16 -10 8 -3 12 -2 9 4 -6 10 -25 14 -25 6z"/>
<path d="M26940 10976 c0 -2 11 -86 25 -187 13 -101 27 -212 31 -246 4 -35 11
-63 15 -63 5 0 7 -11 5 -23 -4 -21 -1 -23 20 -19 13 2 27 8 30 13 3 5 16 9 28
9 13 0 29 7 36 15 7 8 21 15 31 15 9 0 24 6 31 13 7 7 36 19 63 26 28 7 58 19
67 28 10 8 24 13 33 10 8 -4 14 -1 12 6 -1 7 9 11 26 11 16 -1 25 2 20 5 -51
43 -139 117 -143 121 -16 17 -320 270 -325 270 -3 0 -5 -2 -5 -4z"/>
<path d="M25770 10845 l-95 -13 99 2 c70 1 101 5 104 14 2 6 0 11 -5 10 -4 0
-51 -7 -103 -13z"/>
<path d="M9885 9794 c-188 -108 -424 -265 -580 -386 -157 -122 -401 -366 -488
-488 -212 -301 -267 -582 -162 -843 26 -66 26 -69 10 -103 -70 -148 -20 -436
129 -732 201 -399 554 -701 941 -804 117 -31 126 -32 335 -32 187 -1 228 2
319 22 210 46 433 135 649 258 97 55 124 75 146 110 61 96 146 196 227 267
256 224 493 545 608 826 l31 73 -33 -26 c-114 -93 -350 -265 -447 -327 -131
-83 -350 -198 -429 -224 l-53 -17 -77 74 c-104 102 -230 210 -370 317 -454
346 -897 541 -1228 541 l-83 0 30 53 c129 218 160 450 85 615 -23 50 -24 57
-11 78 15 22 580 798 598 822 6 6 9 12 6 12 -2 0 -71 -39 -153 -86z"/>
<path d="M33024 7763 c36 -104 56 -151 160 -377 155 -335 198 -483 175 -595
-22 -108 -134 -181 -280 -181 -122 0 -183 -39 -421 -268 -253 -244 -353 -313
-504 -348 -258 -60 -534 148 -871 656 -49 74 -109 168 -133 208 -23 40 -44 71
-46 69 -2 -2 3 -39 12 -83 19 -97 22 -246 5 -295 -79 -238 -399 80 -599 596
-24 61 -47 119 -51 130 -14 35 -24 -167 -18 -355 15 -408 103 -765 262 -1068
93 -175 168 -279 303 -415 201 -205 457 -358 760 -454 84 -27 94 -28 307 -27
198 0 232 3 345 27 649 137 1170 576 1355 1141 30 91 35 121 35 199 0 467
-198 929 -552 1289 -77 79 -243 218 -260 218 -4 0 4 -30 16 -67z"/>
<path d="M16156 7743 c-75 -117 -141 -269 -166 -385 l-13 -57 57 -126 c166
-368 204 -650 122 -892 -13 -38 -40 -104 -61 -148 l-37 -80 -28 81 c-27 80
-164 380 -181 398 -5 6 -62 -45 -146 -130 -203 -206 -372 -312 -579 -360 -37
-8 -73 -14 -81 -12 -14 3 149 129 334 259 51 35 92 67 93 70 0 8 -206 62 -335
88 -359 72 -728 84 -991 32 -174 -34 -343 -98 -452 -173 -24 -17 -45 -28 -47
-26 -1 1 1 51 6 110 11 127 44 263 93 385 19 48 33 89 31 91 -2 3 -41 -22 -87
-54 -325 -226 -556 -495 -680 -790 -128 -307 -137 -637 -27 -980 16 -50 29
-111 29 -135 0 -71 45 -266 85 -374 212 -566 712 -997 1308 -1127 140 -31 479
-33 632 -4 307 57 672 232 948 456 251 202 474 492 637 825 182 372 291 745
445 1510 107 535 162 740 242 900 73 146 156 221 272 246 46 10 138 1 188 -18
13 -5 15 0 9 33 -21 107 -83 268 -152 391 l-35 64 -290 -148 c-265 -135 -295
-147 -352 -151 -78 -5 -129 8 -191 50 -71 48 -85 54 -151 73 -33 10 -136 53
-229 96 -92 44 -170 79 -172 79 -3 0 -24 -30 -48 -67z"/>
</g>
</svg>
